<?xml version="1.0" standalone="no"?>
<!DOCTYPE svg PUBLIC "-//W3C//DTD SVG 20010904//EN"
 "http://www.w3.org/TR/2001/REC-SVG-20010904/DTD/svg10.dtd">
<svg version="1.0" xmlns="http://www.w3.org/2000/svg"
 width="347.000000pt" height="408.000000pt" viewBox="0 0 347.000000 408.000000"
 preserveAspectRatio="xMidYMid meet">

<g transform="translate(0.000000,408.000000) scale(0.100000,-0.100000)"
fill="#000000" stroke="none">
<path d="M1650 4058 c-90 -13 -189 -69 -299 -172 -69 -65 -120 -141 -166 -245
-49 -112 -137 -374 -160 -475 -20 -88 -37 -119 -153 -295 -132 -199 -137 -219
-76 -298 13 -17 24 -36 24 -41 0 -5 -99 -49 -220 -97 -122 -48 -226 -93 -233
-100 -7 -6 -36 -133 -65 -281 -29 -148 -75 -384 -102 -524 -51 -261 -57 -287
-130 -565 -71 -268 -65 -452 20 -600 59 -104 202 -208 340 -249 108 -32 240
-46 451 -46 l205 0 40 -30 39 -29 564 -1 564 0 46 29 46 29 250 5 c273 6 346
16 470 68 80 33 190 112 235 169 45 57 79 138 97 232 22 116 7 220 -73 536
-35 139 -84 364 -109 500 -41 218 -70 362 -136 672 -10 47 -25 89 -32 95 -8 6
-110 46 -228 89 -118 44 -215 81 -217 82 -2 1 10 28 27 59 52 98 40 145 -84
315 -34 47 -68 96 -75 110 -7 14 -28 49 -47 77 -24 36 -48 97 -74 189 -22 75
-41 140 -44 144 -3 5 -17 53 -31 107 -34 131 -80 222 -162 316 -77 90 -152
148 -237 188 -54 24 -160 51 -189 48 -6 -1 -40 -6 -76 -11z m161 -48 c89 -28
158 -70 240 -147 89 -84 170 -206 197 -298 28 -92 64 -247 59 -252 -3 -2 -29
65 -58 149 -58 164 -100 238 -182 325 -62 66 -151 128 -169 117 -7 -4 -10 -3
-5 1 11 13 -72 59 -86 47 -16 -12 -119 -24 -112 -12 3 4 -5 6 -17 2 -12 -3
-17 -7 -11 -9 23 -8 -20 -43 -52 -42 -17 1 -22 3 -12 6 9 2 17 8 17 13 0 5 8
11 18 13 11 3 8 5 -8 6 -15 0 -32 -5 -39 -11 -11 -11 -12 -10 -6 1 5 9 -1 7
-19 -4 -14 -9 -23 -21 -20 -26 7 -13 91 -11 116 2 26 14 80 21 73 9 -9 -14 29
-30 46 -19 7 5 19 9 24 8 6 0 -3 -7 -18 -15 -26 -14 -31 -14 -52 0 -28 18 -39
20 -30 6 6 -10 -5 -13 -40 -11 -17 2 -17 0 -5 -8 12 -9 13 -11 1 -11 -8 0 -23
-7 -33 -17 -17 -15 -18 -15 -19 3 0 11 -3 13 -6 7 -2 -7 -9 -13 -14 -13 -6 0
-7 5 -4 10 3 6 4 10 1 10 -17 0 -13 -22 6 -29 22 -8 21 -9 -12 -19 l-35 -11
37 2 c20 0 35 4 32 9 -3 4 9 14 25 23 27 13 30 13 25 0 -4 -8 -2 -15 2 -16 5
-1 31 -2 58 -4 27 -2 52 -7 55 -12 3 -4 12 -8 19 -9 29 -2 33 -5 27 -14 -3 -6
1 -7 9 -4 16 6 137 -55 166 -82 12 -12 5 -11 -32 3 -26 9 -45 20 -42 24 2 4
-6 5 -18 1 -17 -4 -20 -2 -14 13 5 14 3 15 -6 8 -9 -8 -35 -7 -83 2 -38 7 -60
13 -47 14 17 1 22 6 20 19 -3 11 -12 16 -26 15 -13 -2 -21 1 -18 6 4 5 -3 7
-14 4 -36 -10 -30 -19 11 -17 21 1 36 -2 34 -7 -6 -9 -90 -3 -107 8 -7 4 -8 1
-3 -7 6 -9 2 -10 -15 -5 -12 4 -25 3 -29 -1 -3 -5 -22 -17 -41 -27 -20 -10
-25 -15 -11 -11 15 4 21 2 17 -4 -3 -6 -1 -13 4 -15 6 -3 5 -4 -2 -3 -7 1 -19
-3 -26 -11 -19 -18 -38 -17 -22 2 7 8 10 15 6 15 -3 0 -9 0 -13 0 -4 0 -8 -6
-9 -15 -3 -18 25 -35 45 -27 8 3 11 0 7 -7 -4 -6 -2 -11 3 -11 6 0 11 3 11 8
0 4 19 8 43 9 23 1 35 0 27 -3 -8 -3 -22 -8 -30 -11 -21 -9 -27 -10 -52 -13
-13 -2 6 -6 42 -9 36 -3 68 -2 71 3 4 5 19 6 35 2 22 -6 25 -9 13 -17 -20 -12
-37 -11 -19 2 12 8 11 9 -5 6 -11 -2 -19 -8 -18 -13 1 -5 -6 -10 -15 -10 -9
-1 -26 -4 -37 -8 -13 -5 -11 -2 5 8 36 22 12 19 -30 -4 l-35 -19 30 -2 c17 -1
23 -3 13 -6 -10 -2 -18 -11 -18 -19 0 -8 -3 -14 -8 -14 -4 0 -13 -10 -21 -21
-11 -19 -11 -21 3 -16 9 4 16 2 16 -2 0 -5 -7 -11 -15 -15 -8 -3 -15 -1 -15 4
0 6 -5 10 -11 10 -5 0 -7 -4 -4 -10 3 -5 1 -10 -5 -10 -6 0 -8 -5 -4 -12 4 -7
3 -8 -4 -4 -7 4 -12 3 -12 -2 0 -15 -28 -23 -36 -10 -4 6 -3 8 3 5 10 -6 42
21 36 30 -7 8 -2 24 6 19 4 -3 17 1 27 9 10 8 14 15 7 15 -6 0 -15 -5 -18 -10
-7 -12 -25 -4 -25 11 0 6 6 7 13 3 7 -4 9 -3 4 2 -15 16 -32 10 -72 -28 -31
-29 -37 -40 -26 -47 8 -5 9 -11 3 -15 -6 -4 -15 0 -19 9 -7 12 -11 11 -21 -6
-10 -15 -10 -19 -1 -14 7 5 10 3 7 -6 -3 -8 -13 -14 -24 -14 -10 0 -19 -7 -19
-15 0 -25 24 -17 45 15 11 17 20 24 20 15 0 -9 -7 -26 -16 -38 -9 -13 -11 -22
-4 -22 6 0 16 11 22 25 6 14 18 25 27 25 13 0 13 -1 -1 -12 -21 -18 -30 -46
-16 -54 6 -4 8 -3 4 4 -3 6 2 15 11 21 14 8 15 11 3 11 -21 2 19 18 45 19 17
1 18 -1 5 -10 -12 -9 -11 -10 7 -6 12 3 23 1 25 -3 2 -4 32 -3 68 2 36 5 80 9
98 8 17 0 32 4 32 10 0 5 5 10 12 10 9 0 9 -3 1 -11 -6 -6 -9 -18 -6 -26 5
-12 -1 -13 -28 -8 -22 4 -51 0 -79 -10 -25 -9 -64 -22 -87 -28 -43 -10 -52
-20 -32 -33 6 -3 15 -1 19 6 6 10 34 12 120 6 62 -3 118 -10 124 -14 6 -3 18
-5 28 -4 9 2 19 -1 22 -6 3 -6 -23 -9 -65 -8 -83 2 -204 -9 -274 -26 -53 -12
-80 -18 -107 -20 -9 -1 -15 -5 -12 -9 4 -6 -39 -25 -60 -27 -5 0 -12 -6 -16
-12 -8 -14 -30 -5 -30 11 0 6 5 7 12 3 7 -4 8 -3 4 5 -12 19 -27 2 -20 -23 4
-16 0 -25 -10 -29 -13 -5 -15 -1 -12 21 l5 27 -19 -22 c-10 -13 -23 -23 -29
-23 -6 0 -11 -7 -11 -16 0 -8 -4 -13 -8 -10 -16 10 -152 -147 -139 -160 2 -3
18 11 35 31 48 59 46 24 -2 -41 -25 -32 -42 -62 -40 -66 3 -5 0 -8 -6 -8 -6 0
-9 -4 -6 -8 3 -5 -4 -16 -15 -26 -12 -9 -18 -23 -15 -31 3 -8 0 -15 -6 -17 -6
-2 -11 -18 -12 -35 0 -17 -5 -29 -10 -26 -5 4 -6 -6 -2 -21 5 -20 4 -26 -5
-20 -9 5 -10 0 -5 -19 3 -14 2 -29 -4 -32 -13 -8 -13 -55 1 -55 5 0 8 -4 5 -9
-3 -5 1 -12 10 -15 9 -3 14 -13 10 -21 -3 -8 0 -17 6 -21 7 -5 8 -2 3 6 -5 9
-4 11 3 6 7 -4 12 -15 12 -25 0 -9 19 -35 42 -56 23 -22 39 -34 34 -28 -5 9
-2 11 8 7 9 -3 16 -13 16 -21 0 -8 4 -12 9 -9 4 3 28 -12 52 -34 40 -36 54
-45 62 -37 1 1 32 -19 69 -45 37 -27 70 -48 75 -48 4 0 19 -9 33 -20 l25 -20
-40 16 c-128 52 -345 178 -415 241 -27 24 -70 71 -95 104 -75 101 -72 110 147
455 52 83 100 199 138 336 69 248 96 308 190 433 78 104 157 165 268 211 70
29 111 30 193 4z m-34 -116 c-3 -3 -12 -4 -19 -1 -8 3 -5 6 6 6 11 1 17 -2 13
-5z m-42 -34 c3 -5 -1 -10 -9 -10 -9 0 -16 5 -16 10 0 6 4 10 9 10 6 0 13 -4
16 -10z m115 -1 c0 -6 7 -8 18 -4 14 5 15 4 5 -6 -10 -10 -16 -10 -25 -1 -7 7
-21 12 -32 11 -21 0 -21 0 -1 -9 18 -8 17 -9 -7 -9 -29 -1 -38 13 -15 22 23
10 57 7 57 -4z m-136 -28 c-7 -8 -35 9 -29 19 4 6 11 5 20 -3 7 -6 11 -14 9
-16z m191 9 c3 -5 1 -10 -4 -10 -6 0 -11 5 -11 10 0 6 2 10 4 10 3 0 8 -4 11
-10z m-242 -197 c-7 -2 -19 -2 -25 0 -7 3 -2 5 12 5 14 0 19 -2 13 -5z m103
-22 c-13 -14 -14 -20 -4 -23 7 -3 3 -7 -10 -10 -28 -8 -28 9 1 33 29 24 35 24
13 0z m47 -11 c7 0 41 -14 77 -32 45 -21 59 -33 47 -36 -10 -2 -25 4 -32 15
-8 10 -15 13 -15 8 0 -6 -26 -11 -57 -13 -32 -1 -76 -5 -98 -9 -22 -4 -43 -7
-47 -7 -3 -1 -10 -4 -14 -8 -4 -5 -12 -8 -18 -8 -6 0 0 10 14 21 23 19 23 20
3 14 -12 -3 -25 -1 -29 6 -4 7 -2 10 7 7 8 -3 22 -1 32 4 12 6 17 5 15 -4 -2
-9 7 -12 27 -11 17 1 56 3 87 5 31 2 61 7 65 12 4 4 -6 5 -22 1 -24 -5 -27 -4
-15 5 12 9 9 10 -15 6 -20 -5 -25 -4 -16 3 11 7 9 10 -8 16 -12 4 -18 11 -14
18 5 8 8 8 11 -1 2 -7 9 -12 15 -12z m-136 -26 c-3 -3 -12 -4 -19 -1 -8 3 -5
6 6 6 11 1 17 -2 13 -5z m-37 -46 c0 -6 -6 -5 -15 2 -8 7 -15 14 -15 16 0 2 7
1 15 -2 8 -4 15 -11 15 -16z m-125 -18 c3 -6 -5 -14 -19 -20 -14 -5 -26 -16
-26 -25 0 -16 -15 -20 -24 -7 -6 11 40 53 48 45 3 -4 6 -1 6 5 0 15 7 15 15 2z
m115 0 c12 -7 10 -9 -8 -7 -12 0 -22 5 -22 9 0 11 12 10 30 -2z m-130 -40 c0
-5 -2 -10 -4 -10 -3 0 -8 5 -11 10 -3 6 -1 10 4 10 6 0 11 -4 11 -10z m5 -58
c-2 -2 -18 -1 -36 3 -20 5 -27 10 -19 15 11 7 63 -10 55 -18z m60 -12 c3 -5 1
-10 -4 -10 -6 0 -11 5 -11 10 0 6 2 10 4 10 3 0 8 -4 11 -10z m-175 -4 c0 -3
-4 -8 -10 -11 -5 -3 -10 -1 -10 4 0 6 5 11 10 11 6 0 10 -2 10 -4z m443 -13
c33 -10 17 -23 -28 -23 -32 0 -45 4 -45 14 0 17 19 26 40 19 8 -3 23 -8 33
-10z m77 -123 c8 -5 11 -10 5 -10 -5 0 -17 5 -25 10 -8 5 -10 10 -5 10 6 0 17
-5 25 -10z m-684 -127 c-2 -9 -9 -19 -17 -21 -11 -3 -11 -1 1 7 13 10 13 11 0
11 -13 0 -13 1 0 10 19 12 19 13 16 -7z m-50 -35 c-9 -5 -14 -13 -11 -17 2 -5
-2 -14 -10 -21 -8 -7 -15 -9 -15 -5 0 4 -8 1 -17 -6 -15 -12 -16 -12 -8 1 17
29 60 68 69 62 5 -2 1 -9 -8 -14z m1430 -349 c35 -71 35 -117 -1 -169 -73
-106 -206 -205 -413 -311 -139 -71 -167 -77 -55 -11 45 27 92 59 103 73 12 13
19 17 15 9 -4 -9 -1 -8 8 3 9 10 19 19 24 20 4 1 7 5 6 9 -2 4 4 5 12 2 7 -3
19 3 26 14 7 11 18 18 24 16 7 -3 18 3 26 13 13 17 13 17 -6 3 -11 -8 -7 0 9
18 16 17 34 28 40 25 6 -3 8 -3 4 1 -9 10 42 67 54 60 5 -3 8 -2 7 3 -3 20 2
33 12 31 6 -2 14 3 17 11 3 8 0 11 -7 7 -7 -5 -9 -1 -5 8 3 9 10 16 16 16 5 0
7 8 4 18 -2 9 -7 43 -11 75 -5 44 -10 57 -23 57 -14 0 -14 2 -3 9 9 6 11 15 6
27 -5 11 -8 22 -7 26 1 5 -53 171 -74 223 -12 32 164 -231 192 -286z m-814
205 c52 -46 94 -66 158 -74 49 -7 51 -8 15 -9 -60 -2 -108 15 -167 59 -29 22
-59 40 -66 40 -8 0 -31 -13 -51 -29 -47 -37 -99 -63 -114 -57 -7 2 -5 5 4 5 9
1 45 23 80 50 35 27 72 49 84 48 11 0 37 -15 57 -33z m314 -9 c-17 -26 -72
-65 -91 -65 -5 0 4 9 21 19 17 10 41 32 55 48 29 36 39 34 15 -2z m-666 -54
c14 -5 18 -10 10 -10 -23 -1 -77 35 -91 61 -9 19 -5 17 22 -9 19 -18 45 -36
59 -42z m674 -26 c-15 -37 -54 -104 -54 -94 0 18 33 95 47 111 23 25 24 23 7
-17z m-747 -32 c3 -13 9 -23 14 -23 5 0 9 -5 9 -11 0 -7 8 -18 18 -26 11 -10
12 -12 2 -8 -13 6 -13 5 0 -7 8 -7 16 -24 18 -38 1 -14 5 -36 8 -50 3 -19 2
-22 -6 -10 -5 8 -10 27 -10 41 0 15 -8 33 -17 40 -16 13 -17 12 -4 -3 9 -12
10 -18 2 -18 -6 0 -11 3 -12 8 -3 30 -10 47 -30 68 -13 14 -20 31 -17 42 3 11
1 28 -4 38 -8 17 -8 17 7 -1 9 -11 18 -30 22 -42z m166 40 c-13 -2 -33 -2 -45
0 -13 2 -3 4 22 4 25 0 35 -2 23 -4z m313 -47 c27 -8 60 -16 74 -18 23 -3 24
-6 21 -58 -1 -30 -4 -56 -5 -57 -1 -1 -29 4 -61 12 -33 7 -61 12 -63 10 -2 -1
8 -14 22 -28 27 -27 36 -54 14 -41 -7 4 -31 20 -53 36 -37 26 -95 36 -95 17 0
-4 -8 -6 -17 -4 -10 2 -22 4 -26 4 -5 1 -5 6 -1 12 5 8 9 8 14 -1 5 -8 11 -7
23 4 8 9 21 14 29 11 7 -3 27 -1 43 3 29 8 30 10 27 60 -2 29 -2 52 0 52 3 0
27 -6 54 -14z m628 -10 c-3 -8 0 -17 5 -21 6 -3 8 -11 5 -17 -8 -12 -34 42
-27 55 7 13 22 -3 17 -17z m-730 -25 c-9 -9 -45 -11 -39 -2 3 6 14 9 25 8 10
-1 17 -3 14 -6z m-164 -46 c-14 -8 -29 -14 -35 -14 -5 0 1 6 15 14 14 8 30 14
35 14 6 0 -1 -6 -15 -14z m170 -5 c0 -5 -5 -10 -11 -10 -5 0 -7 5 -4 10 3 6 8
10 11 10 2 0 4 -4 4 -10z m-65 -10 c3 -6 -1 -7 -9 -4 -18 7 -21 14 -7 14 6 0
13 -4 16 -10z m-25 -53 c0 -4 -4 -6 -9 -3 -5 3 -12 -1 -15 -10 -4 -9 -9 -14
-13 -10 -3 3 -15 -1 -25 -11 -10 -9 -18 -13 -18 -8 0 4 8 14 18 22 16 14 16
14 0 9 -10 -3 -18 -1 -18 4 0 10 22 14 49 10 13 -2 13 0 0 16 -13 16 -12 16 9
3 12 -8 22 -17 22 -22z m-255 -24 c-4 -16 -2 -22 5 -18 5 3 10 1 10 -6 0 -9 3
-9 14 0 11 9 14 8 12 -6 0 -11 5 -17 13 -15 12 3 12 1 1 -13 -12 -14 -9 -20
21 -43 19 -14 51 -44 72 -66 20 -21 37 -35 37 -30 0 5 4 3 9 -5 6 -9 57 -23
138 -37 115 -20 129 -20 140 -7 7 9 10 20 6 26 -3 6 -1 7 5 3 5 -3 34 20 62
51 52 57 51 57 -10 -24 -34 -45 -67 -84 -74 -86 -6 -2 -69 -1 -141 2 l-130 6
-102 119 c-87 102 -101 123 -100 151 1 18 6 31 10 28 5 -3 6 -16 2 -30z m408
-5 c69 -36 60 -47 -24 -29 -38 8 -61 8 -91 -1 -33 -10 -41 -9 -48 2 -7 11 4
20 43 37 29 12 53 22 55 23 2 0 31 -15 65 -32z m147 -37 c0 -5 -7 -12 -16 -15
-14 -5 -15 -4 -4 9 14 17 20 19 20 6z m-448 -26 c-2 -9 0 -15 5 -12 4 3 8 -6
8 -19 0 -22 -1 -23 -13 -7 -7 10 -11 26 -8 36 3 11 0 16 -7 14 -7 -3 -11 -10
-9 -16 1 -6 -2 -11 -8 -11 -14 0 -13 13 2 28 16 16 34 9 30 -13z m68 15 c8 -5
12 -11 10 -14 -3 -2 -14 2 -24 10 -22 15 -10 19 14 4z m144 -43 c-10 -13 -28
-28 -39 -34 -11 -5 -19 -14 -18 -21 2 -7 -4 -9 -14 -5 -10 4 -14 2 -10 -4 4
-6 0 -14 -8 -17 -12 -4 -13 -2 -6 13 6 10 17 23 25 30 9 8 13 17 10 22 -3 5 0
8 8 7 7 -2 12 5 12 15 -1 9 2 17 7 17 5 0 9 -5 9 -11 0 -6 7 -3 16 6 24 23 29
11 8 -18z m182 5 c-17 -16 -18 -16 -5 5 7 12 15 20 18 17 3 -2 -3 -12 -13 -22z
m-331 8 c3 -5 1 -10 -4 -10 -6 0 -11 5 -11 10 0 6 2 10 4 10 3 0 8 -4 11 -10z
m24 -47 c-4 -22 3 -24 24 -7 20 17 20 16 -2 -9 -14 -15 -28 -27 -33 -27 -6 0
-6 25 1 48 2 6 11 1 10 -5z m-614 -173 c28 -31 29 -32 5 -20 -14 7 -31 20 -38
29 -8 9 -10 10 -7 3 5 -10 -2 -9 -30 2 -21 9 -39 16 -42 16 -2 0 -1 5 3 12 4
7 3 8 -5 4 -6 -4 -9 -12 -6 -17 4 -5 -4 -9 -17 -9 -18 0 -20 2 -8 10 8 5 11
10 5 10 -5 0 -16 -4 -23 -8 -9 -7 -7 -13 9 -28 13 -10 20 -14 16 -8 -3 6 0 11
7 11 8 0 12 -6 10 -12 -3 -6 2 -12 10 -12 8 0 12 7 9 16 -2 9 4 1 14 -17 11
-18 23 -29 28 -25 4 4 5 2 1 -5 -4 -7 -12 -9 -18 -6 -7 5 -9 1 -5 -9 4 -11 2
-14 -9 -10 -11 4 -12 9 -5 16 19 19 12 23 -49 25 -33 1 -60 0 -60 -3 0 -12 81
-57 95 -52 9 4 19 -2 26 -14 5 -11 20 -24 32 -29 l22 -9 -21 0 c-12 -1 -24 5
-27 13 -3 9 -16 13 -31 12 -14 -2 -26 0 -26 5 0 4 -13 7 -28 6 -16 -1 -29 -7
-29 -14 0 -8 6 -9 18 -2 23 12 29 11 29 -1 0 -5 -10 -10 -22 -11 -13 0 -17 -3
-10 -6 7 -3 26 0 42 5 18 7 32 7 35 1 4 -5 -6 -9 -22 -10 -25 0 -26 -1 -8 -10
15 -6 11 -7 -15 -3 -19 4 -40 10 -46 15 -6 5 -13 6 -16 3 -3 -3 -22 2 -42 10
-57 24 -42 5 29 -38 36 -21 65 -39 65 -41 0 -1 -30 6 -67 16 -85 24 -104 25
-77 3 18 -15 18 -15 -3 -5 -12 6 -23 15 -25 21 -1 5 -12 11 -23 12 -11 2 -56
23 -100 48 l-80 44 60 27 c33 15 92 40 130 55 39 15 104 42 144 60 l75 33 45
-39 c26 -21 60 -53 76 -70z m1828 20 c104 -42 189 -81 190 -86 3 -14 -162 -93
-218 -104 -27 -5 -59 -11 -70 -13 -11 -2 -14 -2 -7 0 7 3 10 9 7 14 -4 5 1 9
9 9 9 0 16 5 16 11 0 5 3 8 8 6 4 -3 16 4 26 14 23 23 12 24 -43 4 -23 -8 -39
-10 -36 -5 10 16 -7 11 -28 -7 -11 -10 -17 -12 -13 -5 5 8 0 12 -14 12 -11 0
-23 -7 -26 -15 -4 -8 -10 -13 -15 -10 -4 3 -6 12 -3 19 6 16 -6 26 -44 32 -26
5 -26 4 -7 -10 22 -16 21 -16 -15 -34 l-25 -13 25 5 c24 5 24 4 6 -9 -23 -17
-40 -20 -31 -5 9 14 -5 13 -25 -2 -9 -7 -5 -3 8 10 16 16 19 22 8 22 -8 0 -17
-4 -20 -9 -3 -5 -17 -8 -30 -8 -19 0 -22 2 -13 12 8 9 16 10 24 3 8 -7 10 -3
6 14 -3 13 -1 19 4 13 14 -17 62 -25 62 -10 0 6 -8 9 -17 7 -15 -2 -15 -1 -2
8 12 10 10 11 -10 6 -24 -5 -24 -4 -6 9 13 10 22 11 26 5 4 -7 18 -2 36 12 16
12 23 15 16 6 -9 -11 -10 -18 -2 -23 5 -3 10 -1 10 4 0 6 3 10 8 9 10 -2 62
20 62 27 0 4 -6 3 -12 0 -7 -4 -4 1 6 9 19 15 19 16 -8 16 -15 0 -25 -4 -22
-9 3 -5 -2 -15 -12 -22 -15 -12 -16 -12 -5 2 7 9 10 19 6 23 -4 3 2 13 13 21
19 15 19 15 -1 30 -11 9 -26 12 -35 9 -8 -4 -25 -6 -38 -5 -13 0 -20 -4 -17
-9 4 -6 -1 -7 -11 -3 -10 4 -15 2 -11 -4 3 -5 -1 -10 -10 -10 -10 0 11 24 48
58 35 31 68 54 74 51 5 -4 95 -41 198 -82z m-193 -18 c0 -5 -7 -9 -15 -9 -8 0
-12 4 -9 9 3 4 9 8 15 8 5 0 9 -4 9 -8z m-1760 -66 c-4 -4 -16 -4 -26 2 -16 9
-14 10 8 9 15 -1 23 -6 18 -11z m95 -6 c3 -6 -1 -7 -9 -4 -18 7 -21 14 -7 14
6 0 13 -4 16 -10z m42 -43 c12 -11 20 -24 17 -28 -3 -5 0 -10 5 -10 20 -3 26
-5 49 -17 13 -7 20 -18 16 -24 -5 -7 -1 -9 9 -5 10 3 17 2 17 -4 0 -21 -65 4
-92 35 -15 17 -27 26 -28 19 0 -7 -7 -10 -15 -6 -9 3 -13 8 -10 11 3 3 -1 15
-9 27 -13 19 -12 22 2 22 10 0 27 -9 39 -20z m-524 -32 c28 -19 68 -46 87 -61
l35 -26 -33 4 c-20 3 -37 -1 -44 -9 -8 -10 -8 -12 4 -8 9 4 15 0 15 -10 0 -11
-7 -14 -21 -10 -18 5 -19 4 -4 -5 13 -8 17 -27 17 -90 0 -46 -4 -80 -9 -80 -6
0 -8 18 -5 43 5 41 4 41 -5 7 -10 -38 -4 -74 11 -64 5 3 9 -7 9 -23 0 -43 9
-212 15 -268 l5 -50 -25 74 c-23 68 -24 76 -10 97 8 13 14 31 14 41 -1 16 -2
16 -6 -1 -4 -15 -7 -16 -15 -5 -7 10 -8 8 -3 -8 3 -12 1 -24 -4 -27 -5 -4 -10
2 -11 11 -2 53 -6 71 -12 66 -5 -2 -8 0 -8 6 0 5 5 13 10 16 10 6 4 49 -9 70
-6 11 -7 17 -10 78 0 20 -6 37 -11 37 -6 0 -10 -6 -9 -12 1 -7 -1 -20 -4 -28
-11 -27 -67 -357 -76 -452 -12 -121 -13 -319 -1 -332 4 -6 5 -27 1 -46 -7 -34
-7 -33 -31 43 -13 42 -27 74 -30 70 -8 -9 -31 -90 -33 -115 -1 -9 -4 -15 -7
-13 -4 2 -17 -17 -29 -42 -14 -29 -17 -43 -9 -37 8 5 7 2 -3 -6 -24 -23 -41
-59 -33 -72 4 -6 3 -8 -3 -5 -6 4 -22 -20 -38 -56 -40 -91 -40 -91 -27 -83 8
5 10 2 6 -8 -3 -9 -10 -16 -15 -16 -12 0 -11 27 1 70 86 290 120 439 205 895
46 245 96 475 102 475 2 0 27 -16 56 -35z m2104 5 c-2 -23 -10 -17 -12 10 -1
10 2 17 6 14 4 -2 7 -13 6 -24z m500 -88 c12 -59 51 -255 87 -437 74 -379 122
-589 165 -727 34 -109 48 -177 35 -165 -9 8 -10 13 -13 40 0 7 -11 17 -23 22
-13 6 -21 14 -20 19 2 5 -2 12 -9 17 -7 4 -14 15 -15 25 -1 9 -8 22 -15 28 -9
8 -10 6 -5 -9 6 -16 5 -17 -5 -8 -10 10 -9 15 0 27 7 8 9 21 5 27 -4 8 -3 9 4
5 15 -9 4 20 -36 101 -16 32 -35 77 -42 100 -7 23 -19 44 -26 47 -17 6 -19
-15 -3 -31 8 -8 7 -13 -2 -18 -8 -5 -10 -4 -5 3 4 7 3 12 -2 12 -14 0 -21 -36
-10 -51 7 -10 8 -9 3 6 -4 14 -3 17 5 9 6 -6 8 -19 4 -28 -5 -14 -9 -15 -16
-4 -7 10 -10 10 -19 -4 -5 -10 -15 -18 -20 -18 -6 0 -7 4 -4 10 9 15 14 70 6
70 -4 0 -13 -6 -21 -12 -11 -10 -11 -9 0 7 8 11 19 23 23 26 4 3 1 26 -7 50
-9 24 -15 55 -15 69 l1 25 8 -25 c7 -23 8 -23 9 -3 1 12 -3 25 -9 28 -5 3 -10
14 -10 23 0 14 2 14 9 3 7 -10 11 -1 16 31 9 60 -14 241 -31 251 -8 4 -14 16
-13 25 0 14 2 14 10 -3 6 -14 7 -5 3 30 -6 51 -33 117 -34 83 0 -9 5 -20 10
-23 6 -3 10 -18 10 -33 0 -25 -1 -26 -14 -7 -7 11 -14 38 -14 60 -1 22 -4 61
-8 88 -5 32 -3 47 5 47 6 0 11 7 11 16 0 14 -3 14 -15 4 -9 -8 -15 -9 -15 -2
0 6 5 14 10 17 15 9 12 22 -4 22 -9 0 -16 -14 -18 -38 -2 -21 1 -35 6 -32 10
7 3 -38 -26 -159 -12 -49 -25 -88 -31 -88 -5 0 -7 6 -4 13 2 6 8 23 12 37 7
24 6 24 -8 5 -8 -11 -17 -27 -20 -35 -2 -8 -3 -2 -1 14 2 16 4 56 4 90 0 44 3
57 10 46 8 -11 9 -7 4 14 -5 19 -2 31 7 38 11 7 11 11 2 15 -8 3 -13 24 -13
54 0 35 3 48 11 43 8 -5 10 1 5 19 -3 14 -2 29 4 32 5 3 10 13 10 21 0 10 -5
12 -12 8 -8 -5 -7 0 2 11 8 10 10 16 4 12 -7 -4 -14 -1 -17 6 -3 9 -16 12 -39
9 -18 -2 -30 -1 -25 3 15 17 162 111 167 107 3 -2 15 -52 27 -110z m-2141 66
c-8 -4 -25 -4 -38 1 -20 8 -18 9 15 8 24 -1 32 -4 23 -9z m44 -8 c0 -5 -10
-10 -22 -10 -19 0 -20 2 -8 10 19 13 30 13 30 0z m40 -11 c0 -5 -7 -9 -15 -9
-8 0 -15 7 -15 15 0 9 6 12 15 9 8 -4 15 -10 15 -15z m1371 -2 c-6 -8 -8 -17
-5 -20 4 -3 -4 -5 -16 -4 l-22 1 22 18 c26 21 37 23 21 5z m42 -4 c-3 -7 -13
-13 -22 -12 -10 0 -11 2 -3 6 6 2 10 8 8 12 -3 4 1 8 8 8 8 0 12 -6 9 -14z
m396 -142 c33 -27 35 -31 32 -92 -3 -100 -18 -280 -62 -744 -31 -327 -45 -434
-56 -447 -15 -17 -80 -18 -1007 -18 -790 0 -995 2 -1009 13 -19 13 -30 107
-97 847 -40 443 -40 401 1 438 l34 31 1065 0 1065 0 34 -28z m-2409 -312 c0
-6 -4 -7 -10 -4 -5 3 -10 11 -10 16 0 6 5 7 10 4 6 -3 10 -11 10 -16z m2524
-57 c3 -5 -1 -9 -9 -9 -8 0 -15 4 -15 9 0 4 4 8 9 8 6 0 12 -4 15 -8z m143
-134 c-3 -8 -6 -5 -6 6 -1 11 2 17 5 13 3 -3 4 -12 1 -19z m-40 -55 c-1 -21 2
-53 7 -72 6 -24 5 -32 -3 -27 -6 4 -11 2 -11 -3 0 -6 6 -11 13 -12 9 0 9 -2
-1 -6 -6 -2 -10 -8 -7 -13 7 -12 -16 -60 -26 -54 -11 7 -12 61 -1 68 5 3 7 20
5 38 -3 28 -2 30 7 13 7 -15 8 -6 4 32 -5 45 -1 73 11 73 1 0 2 -17 2 -37z
m-2607 -50 c-1 -21 4 -58 9 -83 13 -58 13 -80 1 -80 -6 0 -9 3 -8 8 1 4 -6 25
-15 46 -12 28 -14 42 -6 46 6 4 10 13 9 21 -4 26 0 79 5 79 3 0 5 -17 5 -37z
m2631 4 c-8 -8 -11 -7 -11 4 0 20 13 34 18 19 3 -7 -1 -17 -7 -23z m-2692 -69
c0 -27 -2 -29 -8 -13 -5 11 -6 26 -4 33 8 21 13 13 12 -20z m-1 -97 c-14 -19
-14 -19 -14 14 1 29 3 32 15 21 11 -12 11 -17 -1 -35z m2642 -2 c0 -5 -4 -9
-10 -9 -5 0 -10 7 -10 16 0 8 5 12 10 9 6 -3 10 -10 10 -16z m61 -32 c-13 -13
-15 1 -4 30 7 17 8 17 11 -1 2 -10 -1 -23 -7 -29z m-78 -7 c-3 -12 -8 -19 -11
-16 -5 6 5 36 12 36 2 0 2 -9 -1 -20z m77 -62 c0 6 5 12 10 12 7 0 7 -7 -1
-21 -9 -17 -13 -19 -20 -8 -5 8 -9 19 -9 24 0 6 5 3 10 -5 6 -10 10 -11 10 -2z
m-2765 -138 c-3 -5 -12 -10 -18 -10 -7 0 -6 4 3 10 19 12 23 12 15 0z m118 3
c-7 -2 -19 -2 -25 0 -7 3 -2 5 12 5 14 0 19 -2 13 -5z m2624 1 c-3 -3 -12 -4
-19 -1 -8 3 -5 6 6 6 11 1 17 -2 13 -5z m63 -4 c8 -5 11 -10 5 -10 -5 0 -17 5
-25 10 -8 5 -10 10 -5 10 6 0 17 -5 25 -10z m-2832 -19 c11 -7 10 -9 -3 -14
-9 -4 -14 -3 -10 2 3 5 -1 12 -7 14 -7 3 -8 6 -3 6 6 0 16 -3 23 -8z m180
-122 c-37 -39 -77 -93 -89 -120 -13 -27 -27 -49 -31 -49 -5 0 -2 10 6 22 9 12
16 27 16 32 0 6 -13 -11 -30 -37 -32 -51 -43 -57 -59 -29 -10 16 -10 16 -11 0
0 -9 5 -20 10 -23 11 -7 5 -79 -7 -99 -4 -6 -6 -20 -4 -31 2 -11 0 -17 -4 -13
-4 4 -8 26 -9 50 -2 49 -12 72 -28 62 -7 -4 -8 -2 -4 4 4 7 2 12 -3 12 -6 0
-11 -4 -11 -10 0 -5 -5 -10 -12 -10 -6 0 -3 8 7 20 13 15 22 17 36 9 16 -8 19
-6 19 14 0 30 10 40 27 26 9 -9 13 -8 14 0 3 26 4 30 12 37 4 4 7 16 7 26 0
10 4 18 8 18 5 0 9 7 9 15 0 13 -2 13 -16 0 -9 -8 -35 -30 -57 -48 -33 -27
-40 -37 -32 -50 5 -10 6 -17 1 -16 -4 1 -10 0 -13 -1 -3 -1 -15 -3 -27 -4 -18
-2 -20 0 -12 16 5 10 7 18 5 18 -3 0 -12 -13 -21 -30 -9 -16 -13 -30 -10 -30
4 0 -1 -12 -10 -27 -8 -16 -19 -46 -24 -68 l-9 -40 -1 41 c-1 45 22 131 49
184 45 87 168 170 281 189 100 16 99 17 27 -60z m187 -169 c4 -19 16 -52 27
-73 19 -38 19 -38 -3 -74 -12 -19 -25 -49 -29 -67 -6 -30 -7 -28 -30 39 -16
46 -26 105 -30 175 -4 58 -8 86 -8 63 -1 -24 -6 -43 -12 -43 -5 0 -10 -7 -10
-15 0 -9 -6 -18 -14 -21 -8 -3 -12 -12 -9 -20 4 -12 8 -12 18 3 11 14 13 2 14
-72 1 -50 3 -111 6 -137 3 -44 -8 -66 -18 -35 -2 6 -2 -1 1 -18 3 -23 1 -27
-8 -18 -16 15 -28 86 -26 150 1 29 -2 47 -6 40 -6 -9 -8 -8 -8 3 0 10 -9 6
-25 -13 -27 -30 -32 -28 -14 5 8 15 8 23 -1 32 -9 8 -11 7 -9 -4 1 -8 -1 -22
-4 -30 -4 -8 -13 -42 -21 -75 l-15 -60 3 110 c3 83 9 125 26 170 36 93 92 175
144 206 l31 19 11 -103 c6 -56 14 -118 19 -137z m2278 161 c49 -54 86 -129
103 -210 15 -70 17 -176 4 -226 -6 -25 -8 -20 -9 28 -1 34 -5 57 -12 57 -6 0
-8 7 -5 16 4 12 2 15 -9 10 -8 -3 -14 -2 -13 2 4 14 -23 53 -33 47 -5 -4 -9
-32 -9 -64 0 -34 -7 -75 -17 -97 l-18 -39 -3 38 c-2 24 -7 35 -14 31 -14 -9
-2 76 13 91 5 5 9 22 9 38 0 16 9 40 20 54 11 14 20 20 20 14 0 -7 5 -9 11 -5
8 4 7 9 -2 15 -11 7 -11 11 -2 17 9 5 7 18 -7 47 l-19 40 1 -56 c1 -57 -7 -83
-22 -74 -5 3 -11 -16 -13 -42 -3 -36 -4 -31 -4 19 0 53 2 65 11 52 10 -13 12
-13 12 5 0 11 -3 19 -6 19 -23 -2 -30 6 -31 35 -1 17 -5 1 -10 -38 -5 -38 -21
-108 -36 -155 l-26 -85 -9 45 c-4 25 -17 57 -28 72 -18 25 -19 30 -6 50 21 33
44 123 51 198 3 36 8 80 11 98 l5 33 28 -20 c15 -11 44 -38 64 -60z m137 52
c115 -31 182 -82 234 -177 19 -33 37 -79 41 -101 3 -22 8 -51 11 -63 3 -14 1
-21 -5 -18 -5 3 -7 -3 -4 -14 3 -11 1 -20 -4 -20 -12 0 -26 87 -16 103 3 6 1
7 -5 3 -7 -4 -12 -17 -12 -28 0 -12 -3 -18 -7 -14 -5 4 -8 18 -8 29 0 16 -5
21 -19 19 -15 -3 -16 -1 -5 11 12 12 15 12 25 -1 9 -12 13 -12 19 -2 6 9 4 11
-5 5 -10 -6 -12 -4 -7 9 5 11 3 15 -5 10 -8 -5 -9 -2 -5 9 3 10 2 17 -3 17 -6
0 -10 -6 -10 -12 -1 -14 -50 -54 -50 -40 0 4 4 12 9 18 5 5 5 18 1 29 -8 19
-9 19 -9 -2 -1 -13 -7 -22 -13 -20 -18 3 -44 40 -32 44 30 11 38 22 25 37 -7
9 -17 13 -22 11 -4 -3 -13 3 -18 13 -6 11 -22 27 -36 36 -25 17 -25 16 -13 -3
6 -11 16 -19 21 -18 5 1 12 -4 15 -12 2 -8 0 -11 -6 -7 -6 4 -8 -2 -4 -16 6
-21 7 -21 10 -4 3 14 6 16 12 6 5 -7 3 -21 -3 -31 -9 -15 -7 -22 11 -39 12
-12 20 -25 17 -30 -3 -6 1 -7 9 -4 9 3 16 1 16 -6 0 -6 -5 -8 -10 -5 -16 10
-23 -22 -12 -55 6 -16 7 -30 2 -30 -7 0 -24 63 -25 97 0 19 -22 37 -22 19 0
-8 5 -12 11 -9 6 4 5 -1 -3 -10 -18 -23 -19 -22 -16 17 4 35 -24 74 -43 62 -5
-3 -9 1 -9 9 0 8 5 11 11 8 14 -8 -32 44 -114 130 l-65 68 45 -6 c25 -4 70
-14 100 -22z m-2966 -138 c-4 -8 -8 -15 -10 -15 -2 0 -4 7 -4 15 0 8 4 15 10
15 5 0 7 -7 4 -15z m191 -41 c-10 -7 -21 -11 -25 -9 -5 3 -11 -2 -14 -11 -4
-9 -9 -14 -13 -10 -10 10 28 45 43 39 8 -3 14 -2 13 3 -3 18 3 29 8 15 3 -8
-2 -20 -12 -27z m2910 7 c3 -6 -4 -15 -15 -21 -19 -10 -20 -10 -8 9 15 24 15
24 23 12z m-2860 -105 c-10 -61 -15 -77 -26 -71 -5 4 -9 18 -8 33 l1 27 9 -25
c8 -24 8 -24 6 5 -1 17 2 36 7 43 4 7 5 20 2 28 -3 9 -2 12 5 8 6 -4 8 -22 4
-48z m402 43 c-9 -6 -15 -14 -12 -20 4 -5 1 -9 -5 -9 -7 0 -10 6 -7 14 3 8 1
17 -6 20 -7 2 2 5 18 5 25 0 27 -1 12 -10z m2003 1 c0 -5 -2 -10 -4 -10 -3 0
-8 5 -11 10 -3 6 -1 10 4 10 6 0 11 -4 11 -10z m-1312 -7 c-10 -2 -28 -2 -40
0 -13 2 -5 4 17 4 22 1 32 -1 23 -4z m-1113 -13 c-3 -5 -12 -10 -18 -10 -7 0
-6 4 3 10 19 12 23 12 15 0z m-146 -21 c-5 -10 -14 -21 -20 -25 -8 -5 -8 -1 0
13 6 11 8 22 6 25 -3 3 2 5 9 5 11 0 12 -5 5 -18z m1999 14 c-16 -2 -40 -2
-55 0 -16 2 -3 4 27 4 30 0 43 -2 28 -4z m-2011 -95 c-3 -7 -5 -2 -5 12 0 14
2 19 5 13 2 -7 2 -19 0 -25z m853 -17 c0 -41 -9 -61 -29 -61 -36 0 -41 21 -13
56 33 42 42 43 42 5z m1482 -25 c11 -21 -3 -36 -34 -36 -15 0 -18 9 -18 47 l0
46 21 -19 c11 -10 25 -27 31 -38z m643 14 c-4 -17 -9 -29 -12 -26 -3 2 -2 19
2 36 4 17 9 29 12 26 3 -2 2 -19 -2 -36z m155 20 c0 -5 -5 -10 -11 -10 -5 0
-7 5 -4 10 3 6 8 10 11 10 2 0 4 -4 4 -10z m-3090 -12 c0 -10 3 -9 9 1 12 19
25 -21 16 -50 -4 -12 -1 -27 9 -38 14 -15 14 -17 -4 -18 -11 -1 -25 8 -31 19
-8 15 -8 19 0 14 15 -10 14 7 -1 23 -11 10 -10 11 5 6 13 -6 17 -2 17 16 0 17
-3 20 -9 11 -7 -11 -9 -11 -14 2 -10 25 -29 19 -22 -6 5 -20 4 -21 -5 -5 -6 9
-8 22 -5 27 9 14 35 12 35 -2z m117 -10 c-3 -8 -6 -5 -6 6 -1 11 2 17 5 13 3
-3 4 -12 1 -19z m409 -26 c-11 -10 -15 4 -8 28 l7 25 3 -23 c2 -13 1 -26 -2
-30z m2511 31 c14 -17 14 -17 8 2 -5 15 -3 17 5 9 9 -9 9 -17 1 -32 -18 -34
-12 -39 9 -7 26 39 26 26 0 -22 -13 -24 -20 -31 -20 -19 0 12 -5 16 -15 12
-20 -7 -19 4 0 18 14 10 14 13 0 31 -16 19 -16 19 -10 -5 5 -19 4 -21 -4 -10
-7 11 -10 0 -9 -38 1 -28 5 -52 10 -52 5 0 7 4 4 8 -2 4 0 14 5 22 7 11 8 8 6
-10 -2 -14 -10 -25 -18 -25 -18 0 -25 86 -9 115 13 25 19 25 37 3z m-497 -23
c0 -12 -5 -17 -14 -14 -8 3 -12 13 -9 25 6 23 23 15 23 -11z m-2253 -52 c-2
-13 -4 -3 -4 22 0 25 2 35 4 23 2 -13 2 -33 0 -45z m-370 20 c-3 -7 -5 -2 -5
12 0 14 2 19 5 13 2 -7 2 -19 0 -25z m838 -30 c3 1 12 2 21 2 12 0 14 -7 9
-32 -9 -41 -22 -58 -46 -58 -12 0 -21 10 -25 25 -5 20 -9 23 -20 14 -11 -9
-14 -7 -14 9 0 12 5 24 12 28 7 5 8 3 3 -6 -5 -9 -4 -11 4 -6 6 4 9 12 5 17
-3 5 0 17 7 25 12 14 14 14 26 -3 8 -10 16 -17 18 -15z m-215 6 c0 -13 -3 -14
-14 -5 -13 11 -13 5 -2 -44 11 -46 11 -54 0 -44 -13 11 -34 70 -34 97 0 6 11
12 25 12 16 0 25 -6 25 -16z m1804 -6 c25 -35 20 -67 -10 -79 -37 -14 -61 -3
-73 33 -13 38 -14 61 -2 54 5 -4 20 -2 33 3 33 14 35 13 52 -11z m203 -26 c-3
-28 -13 -52 -27 -66 -21 -20 -22 -20 -13 -1 6 11 13 40 17 64 6 39 5 43 -9 31
-8 -7 -15 -8 -15 -3 0 15 10 22 32 20 18 -1 20 -7 15 -45z m-2320 -14 c-3 -8
-6 -5 -6 6 -1 11 2 17 5 13 3 -3 4 -12 1 -19z m70 0 c-3 -8 -6 -5 -6 6 -1 11
2 17 5 13 3 -3 4 -12 1 -19z m1733 2 c6 -11 7 -20 2 -20 -6 0 -12 9 -15 20 -3
11 -3 20 -1 20 2 0 8 -9 14 -20z m-1970 -22 c0 -6 -7 -5 -15 2 -8 7 -15 17
-15 22 0 6 7 5 15 -2 8 -7 15 -17 15 -22z m964 17 c-4 -8 -11 -15 -16 -15 -6
0 -5 6 2 15 7 8 14 15 16 15 2 0 1 -7 -2 -15z m1653 -27 c-3 -7 -5 -2 -5 12 0
14 2 19 5 13 2 -7 2 -19 0 -25z m-2297 -20 c0 -39 -9 -32 -15 11 -2 18 0 29 6
26 5 -4 9 -20 9 -37z m-40 -30 c0 -17 -10 -6 -25 25 l-16 32 20 -25 c11 -14
21 -28 21 -32z m335 26 c21 -21 31 -24 57 -19 l31 7 -21 -33 c-16 -27 -29 -35
-57 -37 -27 -2 -35 1 -35 13 0 9 -4 13 -10 10 -5 -3 -10 1 -10 10 0 10 5 14
13 9 6 -4 4 1 -5 11 -13 14 -14 21 -5 36 15 23 11 24 42 -7z m2035 22 c0 -3
-4 -8 -10 -11 -5 -3 -10 -1 -10 4 0 6 5 11 10 11 6 0 10 -2 10 -4z m-294 -31
c15 -23 15 -27 0 -50 -24 -37 -78 -35 -105 4 -27 37 -26 42 4 37 15 -3 33 3
47 14 30 25 34 25 54 -5z m-1441 -5 c-10 -11 -22 -20 -28 -20 -5 0 1 9 14 20
31 25 37 25 14 0z m1110 0 c10 -11 14 -20 8 -20 -5 0 -18 9 -28 20 -10 11 -14
20 -8 20 5 0 18 -9 28 -20z m606 -35 c22 14 5 -12 -23 -34 -26 -21 -29 -22
-20 -5 11 20 12 25 12 52 1 16 1 16 11 -1 6 -9 14 -15 20 -12z m-2298 -26 c-6
-6 -19 -2 -34 10 -21 18 -21 20 -6 21 10 0 15 -4 12 -10 -3 -5 1 -10 9 -10 10
0 13 6 10 18 -5 15 -4 15 6 -1 8 -12 9 -22 3 -28z m225 -11 c9 -11 29 -18 49
-18 l35 0 -30 -25 c-17 -14 -35 -25 -42 -25 -22 0 -39 34 -39 75 0 22 3 33 6
25 3 -8 12 -23 21 -32z m197 2 c-9 -16 -17 -30 -19 -30 -1 0 -1 14 2 30 2 17
10 30 18 30 12 0 12 -5 -1 -30z m1432 -10 c-2 -25 -13 -16 -19 15 -4 20 -2 23
8 14 7 -5 12 -19 11 -29z m209 -2 c-7 -35 -23 -58 -40 -58 -6 0 -24 11 -41 25
l-30 25 31 -6 c26 -5 35 -1 50 20 26 35 38 32 30 -6z"/>
<path d="M1770 3960 l-25 -8 28 -1 c15 -1 27 4 27 9 0 6 -1 10 -2 9 -2 -1 -14
-5 -28 -9z"/>
<path d="M1548 3813 c7 -3 16 -2 19 1 4 3 -2 6 -13 5 -11 0 -14 -3 -6 -6z"/>
<path d="M1808 3743 c6 -2 18 -2 25 0 6 3 1 5 -13 5 -14 0 -19 -2 -12 -5z"/>
<path d="M1469 3673 c-13 -16 -12 -17 4 -4 9 7 17 15 17 17 0 8 -8 3 -21 -13z"/>
<path d="M1479 3653 c-13 -16 -12 -17 3 -5 13 10 22 11 40 2 22 -11 22 -10 4
4 -25 20 -30 20 -47 -1z"/>
<path d="M1430 3640 c-9 -6 -10 -10 -3 -10 6 0 15 5 18 10 8 12 4 12 -15 0z"/>
<path d="M1480 3630 c-23 -7 -23 -8 -3 -9 12 -1 25 4 28 9 3 6 5 10 3 9 -2 -1
-14 -5 -28 -9z"/>
<path d="M1550 3565 c-10 -12 -9 -16 3 -21 17 -6 37 2 37 16 0 15 -29 19 -40
5z"/>
<path d="M1335 3370 c-3 -5 -4 -14 -1 -19 3 -5 -1 -11 -8 -14 -8 -3 -20 -15
-26 -26 -8 -17 -8 -20 4 -15 9 3 14 11 13 16 -1 6 4 13 12 16 8 3 11 0 7 -7
-10 -16 10 -14 27 4 8 8 18 11 22 7 5 -4 5 -1 0 7 -6 10 -2 12 16 6 l24 -7
-23 17 c-13 9 -26 14 -29 11 -3 -3 -12 -1 -19 5 -8 7 -14 7 -19 -1z m41 -12
c4 4 2 -1 -5 -10 -7 -10 -19 -18 -25 -18 -6 0 -4 5 4 10 10 6 11 10 3 10 -7 0
-13 5 -13 11 0 8 4 9 13 0 8 -6 18 -7 23 -3z"/>
<path d="M1498 3373 c6 -2 18 -2 25 0 6 3 1 5 -13 5 -14 0 -19 -2 -12 -5z"/>
<path d="M1555 3299 c-4 -6 -5 -12 -2 -15 2 -3 7 2 10 11 7 17 1 20 -8 4z"/>
<path d="M1390 3275 c-22 -12 -23 -14 -7 -21 10 -3 21 -4 24 0 4 3 0 6 -7 6
-9 0 -7 5 6 15 24 18 17 19 -16 0z"/>
<path d="M1458 3263 c7 -3 16 -2 19 1 4 3 -2 6 -13 5 -11 0 -14 -3 -6 -6z"/>
<path d="M1340 3250 c-9 -6 -10 -10 -3 -10 6 0 15 5 18 10 8 12 4 12 -15 0z"/>
<path d="M1777 3393 c-3 -5 6 -9 20 -10 19 -1 22 1 12 8 -17 11 -26 11 -32 2z"/>
<path d="M2710 2266 c0 -2 7 -7 16 -10 8 -3 12 -2 9 4 -6 10 -25 14 -25 6z"/>
<path d="M2615 2250 c-3 -6 1 -7 9 -4 18 7 21 14 7 14 -6 0 -13 -4 -16 -10z"/>
<path d="M2656 2247 c3 -10 9 -15 12 -12 3 3 0 11 -7 18 -10 9 -11 8 -5 -6z"/>
<path d="M968 2251 c8 -4 14 -12 15 -17 1 -5 8 -9 15 -11 10 -1 8 4 -4 18 -9
10 -22 19 -28 19 -6 0 -5 -4 2 -9z"/>
<path d="M1048 2173 c6 -2 18 -2 25 0 6 3 1 5 -13 5 -14 0 -19 -2 -12 -5z"/>
<path d="M505 1880 c3 -5 8 -10 11 -10 2 0 4 5 4 10 0 6 -5 10 -11 10 -5 0 -7
-4 -4 -10z"/>
<path d="M2955 2140 c-3 -5 -1 -10 4 -10 6 0 11 5 11 10 0 6 -2 10 -4 10 -3 0
-8 -4 -11 -10z"/>
<path d="M3036 1907 c3 -10 9 -15 12 -12 3 3 0 11 -7 18 -10 9 -11 8 -5 -6z"/>
<path d="M2941 1774 c0 -11 3 -14 6 -6 3 7 2 16 -1 19 -3 4 -6 -2 -5 -13z"/>
<path d="M3113 1335 c0 -33 2 -45 4 -27 2 18 2 45 0 60 -2 15 -4 0 -4 -33z"/>
<path d="M3276 971 c-3 -5 1 -14 10 -21 8 -7 13 -19 10 -27 -3 -8 -1 -11 4 -8
6 3 11 1 11 -4 1 -6 2 -16 3 -23 1 -11 26 -25 26 -15 0 13 -45 87 -52 87 -5 0
-6 5 -3 10 3 6 4 10 1 10 -3 0 -7 -4 -10 -9z"/>
<path d="M699 1990 c-1 -5 -2 -14 -3 -20 0 -5 -5 -10 -11 -9 -5 1 -9 6 -7 12
2 6 -6 3 -17 -7 -23 -21 -29 -35 -7 -17 9 8 16 8 20 2 4 -6 14 -7 23 -4 12 5
14 3 8 -8 -8 -12 -6 -12 8 0 18 15 23 26 7 16 -10 -6 -14 7 -11 33 1 6 -1 12
-4 12 -3 0 -6 -4 -6 -10z"/>
<path d="M727 1993 c-3 -5 449 -7 1005 -5 628 1 1007 -1 1003 -7 -3 -5 -1 -13
5 -16 8 -5 8 -11 1 -19 -7 -9 -4 -12 12 -13 12 -1 32 -3 44 -6 33 -8 39 12 12
37 -22 20 -22 20 -6 0 20 -24 23 -41 4 -25 -8 6 -17 8 -20 4 -11 -10 -46 28
-40 43 4 12 -141 14 -1005 14 -556 0 -1013 -3 -1015 -7z"/>
<path d="M2764 1986 c1 -8 5 -18 8 -22 4 -3 5 1 4 10 -1 8 -5 18 -8 22 -4 3
-5 -1 -4 -10z"/>
<path d="M642 1910 c0 -14 2 -19 5 -12 2 6 2 18 0 25 -3 6 -5 1 -5 -13z"/>
<path d="M1665 1900 c-17 -8 -17 -9 7 -7 15 1 24 5 22 9 -3 4 -6 8 -7 7 -1 0
-11 -4 -22 -9z"/>
<path d="M1708 1868 c18 -5 39 -5 47 -1 8 5 -5 9 -33 9 -45 1 -46 1 -14 -8z"/>
<path d="M1660 1859 c0 -6 -10 -8 -22 -5 -13 3 -18 3 -11 0 8 -3 9 -15 2 -37
-13 -45 -11 -55 6 -33 8 11 13 29 10 40 -3 12 -2 15 1 9 10 -21 22 -14 22 12
0 14 -2 25 -4 25 -2 0 -4 -5 -4 -11z"/>
<path d="M1805 1859 c-4 -6 -14 -8 -22 -5 -12 5 -14 0 -11 -24 3 -16 1 -30 -4
-30 -4 0 -8 -16 -8 -36 0 -21 4 -33 10 -29 6 3 10 1 10 -4 0 -6 7 -11 16 -11
12 0 15 7 12 25 -3 14 -1 28 3 31 7 4 9 94 2 94 -1 0 -5 -5 -8 -11z"/>
<path d="M2813 1825 c0 -22 2 -30 4 -17 2 12 2 30 0 40 -3 9 -5 -1 -4 -23z"/>
<path d="M1858 1843 c6 -2 18 -2 25 0 6 3 1 5 -13 5 -14 0 -19 -2 -12 -5z"/>
<path d="M988 1793 c12 -2 32 -2 45 0 12 2 2 4 -23 4 -25 0 -35 -2 -22 -4z"/>
<path d="M651 1774 c0 -11 3 -14 6 -6 3 7 2 16 -1 19 -3 4 -6 -2 -5 -13z"/>
<path d="M1643 1765 c-6 -14 -7 -25 -2 -25 11 0 22 25 17 39 -1 6 -8 -1 -15
-14z"/>
<path d="M1914 1746 c1 -20 26 -36 26 -16 0 6 -4 9 -9 5 -5 -3 -11 3 -14 12
-3 15 -4 15 -3 -1z"/>
<path d="M702 1740 c0 -14 2 -19 5 -12 2 6 2 18 0 25 -3 6 -5 1 -5 -13z"/>
<path d="M1460 1757 c0 -3 7 -18 15 -33 11 -21 15 -24 15 -11 0 10 -7 25 -15
33 -8 9 -15 13 -15 11z"/>
<path d="M1558 1753 c7 -3 16 -2 19 1 4 3 -2 6 -13 5 -11 0 -14 -3 -6 -6z"/>
<path d="M1961 1725 l-24 -23 39 -18 c21 -9 42 -16 47 -16 4 1 7 -3 7 -9 0 -8
4 -8 14 0 12 10 13 8 8 -11 -5 -20 -3 -21 10 -11 8 7 17 11 20 8 2 -3 5 2 5
10 0 11 -4 12 -14 3 -11 -8 -12 -7 -7 5 4 12 0 15 -22 13 -32 -4 -58 14 -40
27 6 5 -2 6 -18 2 -26 -5 -27 -5 -12 10 9 9 16 21 16 26 0 12 -1 11 -29 -16z"/>
<path d="M2800 1711 c0 -5 -8 -18 -17 -27 -16 -16 -16 -17 -1 -12 9 4 19 2 22
-5 2 -7 5 3 5 21 1 17 -1 32 -4 32 -3 0 -5 -4 -5 -9z"/>
<path d="M1460 1691 c0 -6 4 -13 10 -16 6 -3 7 1 4 9 -7 18 -14 21 -14 7z"/>
<path d="M781 1664 c0 -11 3 -14 6 -6 3 7 2 16 -1 19 -3 4 -6 -2 -5 -13z"/>
<path d="M672 1640 c0 -14 2 -19 5 -12 2 6 2 18 0 25 -3 6 -5 1 -5 -13z"/>
<path d="M741 1644 c0 -11 3 -14 6 -6 3 7 2 16 -1 19 -3 4 -6 -2 -5 -13z"/>
<path d="M1465 1649 c-4 -6 -4 -13 -1 -16 3 -4 6 -1 6 6 0 7 7 11 15 8 8 -4
17 -2 20 3 4 6 -3 10 -14 10 -11 0 -23 -5 -26 -11z"/>
<path d="M2703 1645 c-7 -8 -13 -29 -13 -47 0 -26 -3 -30 -11 -18 -8 12 -9 9
-5 -12 7 -32 -13 -85 -41 -111 -20 -17 -20 -17 -18 8 2 14 -1 25 -7 25 -6 0
-8 -7 -5 -15 4 -8 2 -17 -4 -20 -5 -4 -7 -10 -4 -15 3 -4 -2 -11 -10 -14 -13
-5 -14 -2 -4 15 8 16 8 24 -1 33 -8 8 -10 7 -5 -5 4 -11 -1 -22 -14 -31 -12
-8 -18 -17 -15 -20 10 -10 -88 -38 -115 -32 -21 5 -23 3 -11 -6 13 -10 13 -11
-1 -7 -9 3 -44 -1 -79 -9 -34 -8 -70 -12 -78 -9 -8 3 -21 0 -28 -6 -27 -22
-59 -3 -73 46 -16 55 -39 59 -62 10 -14 -29 -14 -37 -3 -46 19 -15 18 -30 -1
-23 -13 5 -14 2 -5 -21 16 -42 12 -105 -10 -151 -34 -69 -119 -114 -217 -114
-42 0 -43 -1 -43 -32 0 -18 -3 -50 -6 -70 -6 -35 -7 -36 -43 -31 -20 3 -38 7
-40 9 -2 2 1 32 6 68 9 61 8 65 -11 70 -46 12 -46 13 -61 -92 l-7 -43 -36 7
c-21 4 -38 8 -40 9 -2 1 2 31 7 66 12 73 12 74 -67 83 -31 4 -66 9 -78 12
l-23 6 22 44 c19 41 24 44 59 44 33 0 38 3 38 24 0 13 3 37 6 53 6 29 4 30
-38 37 -23 4 -50 7 -58 7 -46 -1 -230 23 -230 29 0 5 -8 6 -19 3 -10 -3 -46 2
-80 11 -33 8 -69 13 -78 10 -16 -5 -16 -4 0 6 10 7 27 10 38 7 10 -3 22 -1 25
4 3 5 -10 9 -28 10 -31 1 -32 1 -8 10 l25 8 -25 -2 c-15 -2 -24 -8 -22 -16 2
-10 -5 -12 -25 -7 -21 5 -24 4 -13 -4 13 -8 12 -10 -3 -10 -10 0 -20 6 -23 14
-3 8 -16 17 -30 20 -13 4 -23 10 -22 14 3 18 -16 42 -34 42 -14 0 -18 5 -14
15 6 17 -28 40 -45 30 -5 -4 -16 -1 -24 5 -12 10 -15 9 -15 -4 0 -10 5 -14 10
-11 6 3 10 1 10 -4 0 -18 -19 -12 -30 9 -6 12 -8 36 -4 57 5 24 3 34 -4 29 -6
-4 -12 5 -15 21 -2 16 -5 -8 -7 -52 -2 -69 -3 -74 -9 -38 -10 60 -22 66 -14 7
3 -27 10 -50 15 -52 10 -4 11 -689 1 -695 -5 -3 -7 150 -5 339 2 230 -1 344
-8 344 -5 0 -10 7 -10 15 0 8 -4 15 -9 15 -4 0 -7 21 -6 48 1 27 1 33 -2 12
-3 -19 -10 -38 -16 -42 -9 -5 -9 -10 1 -20 6 -6 11 -26 11 -43 -1 -23 -3 -25
-6 -7 -8 40 -23 23 -22 -25 1 -38 3 -43 9 -23 7 25 7 25 11 -5 2 -17 9 -29 16
-28 7 2 10 -4 6 -13 -4 -12 -8 -13 -14 -3 -5 9 -10 4 -15 -15 -9 -37 8 -132
23 -129 7 2 10 -4 6 -13 -5 -13 -7 -13 -14 -2 -6 8 -9 0 -9 -25 0 -37 19 -45
21 -9 0 13 3 11 11 -6 9 -17 8 -26 -1 -35 -10 -9 -11 -8 -6 8 6 18 5 18 -5 3
-8 -13 -8 -23 0 -37 5 -11 10 -26 9 -33 0 -7 -4 -4 -9 7 -7 16 -9 13 -9 -16
-1 -20 2 -38 5 -42 3 -3 8 -47 10 -99 6 -119 6 -123 29 -148 18 -20 22 -20
982 -20 756 0 963 3 963 13 0 6 3 109 6 227 4 118 7 320 8 447 1 128 1 233 1
233 0 -1 -6 -7 -12 -15z m-1833 -153 c-36 -9 -41 -13 -34 -23 4 -8 9 -7 15 2
4 7 11 10 16 6 4 -5 1 -13 -7 -18 -11 -8 -10 -9 7 -4 18 5 22 3 17 -10 -5 -13
-1 -15 22 -10 27 5 27 5 6 -5 -20 -8 -30 -5 -61 17 -34 24 -36 28 -22 43 9 9
25 14 36 11 14 -3 15 -6 5 -9z m70 -82 c8 -5 11 -10 5 -10 -5 0 -17 5 -25 10
-8 5 -10 10 -5 10 6 0 17 -5 25 -10z m1208 -58 c13 11 14 11 10 -2 -7 -23 -38
-25 -37 -3 0 11 3 13 6 5 4 -10 8 -10 21 0z m-1428 -42 c0 -5 -4 -10 -10 -10
-5 0 -10 5 -10 10 0 6 5 10 10 10 6 0 10 -4 10 -10z m-3 -82 c-3 -8 -6 -5 -6
6 -1 11 2 17 5 13 3 -3 4 -12 1 -19z"/>
<path d="M2741 1628 c0 -14 -7 -29 -13 -31 -10 -4 -10 -6 0 -6 16 -1 25 22 19
46 -3 12 -5 9 -6 -9z"/>
<path d="M710 1626 c0 -8 7 -16 15 -20 13 -4 14 -2 5 14 -13 23 -20 26 -20 6z"/>
<path d="M1520 1630 c-21 -7 -21 -8 -5 -9 11 0 27 4 35 9 18 11 5 11 -30 0z"/>
<path d="M2071 1625 c1 -19 18 -51 18 -35 0 8 -4 22 -9 30 -5 8 -9 11 -9 5z"/>
<path d="M1820 1590 c12 -11 26 -17 31 -15 4 3 10 1 14 -5 4 -6 -6 -10 -24
-10 -20 0 -35 -8 -46 -22 -15 -22 -14 -23 12 -29 28 -7 28 -7 3 -8 -15 0 -32
-7 -39 -13 -10 -11 -11 -7 -7 16 3 16 2 25 -2 21 -4 -3 -8 -11 -8 -16 -3 -22
-7 -22 -14 1 -7 22 -8 20 -7 -11 1 -25 6 -35 15 -32 6 3 12 0 12 -6 0 -18 89
-14 96 4 4 8 10 15 16 15 5 0 6 -4 3 -10 -3 -6 1 -7 10 -3 13 5 14 7 3 14 -10
7 -9 9 4 9 11 0 15 5 12 15 -7 18 -25 20 -21 3 1 -7 -9 -14 -23 -16 -19 -2
-22 -1 -10 7 8 5 18 7 24 4 5 -3 6 -1 2 6 -4 6 -11 9 -16 6 -5 -3 -12 0 -15 6
-5 6 0 10 11 9 35 -4 43 0 37 17 -4 11 -3 14 6 9 7 -5 10 -14 7 -22 -3 -7 -1
-16 4 -19 22 -13 8 33 -16 56 -14 13 -26 23 -27 21 -1 -2 -15 1 -30 7 -40 15
-43 14 -17 -9z m63 -35 c-3 -8 -13 -15 -22 -15 -14 1 -14 2 2 11 9 6 14 15 11
21 -4 7 -2 8 4 4 6 -4 9 -13 5 -21z m-60 -72 c-7 -2 -19 -2 -25 0 -7 3 -2 5
12 5 14 0 19 -2 13 -5z m-20 -20 c-7 -2 -19 -2 -25 0 -7 3 -2 5 12 5 14 0 19
-2 13 -5z"/>
<path d="M2761 1594 c0 -11 3 -14 6 -6 3 7 2 16 -1 19 -3 4 -6 -2 -5 -13z"/>
<path d="M2785 1579 c-4 -12 -2 -26 4 -32 8 -8 11 -2 11 21 0 37 -6 41 -15 11z"/>
<path d="M801 1574 c0 -11 3 -14 6 -6 3 7 2 16 -1 19 -3 4 -6 -2 -5 -13z"/>
<path d="M1741 1574 c0 -11 3 -14 6 -6 3 7 2 16 -1 19 -3 4 -6 -2 -5 -13z"/>
<path d="M1770 1570 c0 -5 5 -10 11 -10 5 0 7 5 4 10 -3 6 -8 10 -11 10 -2 0
-4 -4 -4 -10z"/>
<path d="M673 1525 c0 -22 2 -30 4 -17 2 12 2 30 0 40 -3 9 -5 -1 -4 -23z"/>
<path d="M1571 1534 c0 -11 3 -14 6 -6 3 7 2 16 -1 19 -3 4 -6 -2 -5 -13z"/>
<path d="M2577 1514 c-11 -11 3 -24 18 -18 8 4 12 10 9 15 -6 11 -18 12 -27 3z"/>
<path d="M2625 1500 c-3 -5 0 -10 7 -10 10 0 9 -3 -2 -11 -10 -7 -11 -9 -2 -7
8 2 13 7 12 12 -1 5 4 13 12 17 10 7 9 9 -4 9 -9 0 -20 -4 -23 -10z"/>
<path d="M1542 1455 c0 -16 2 -22 5 -12 2 9 2 23 0 30 -3 6 -5 -1 -5 -18z"/>
<path d="M1562 1460 c0 -14 2 -19 5 -12 2 6 2 18 0 25 -3 6 -5 1 -5 -13z"/>
<path d="M2075 1470 c-3 -5 -1 -10 4 -10 6 0 11 5 11 10 0 6 -2 10 -4 10 -3 0
-8 -4 -11 -10z"/>
<path d="M2782 1460 c0 -14 2 -19 5 -12 2 6 2 18 0 25 -3 6 -5 1 -5 -13z"/>
<path d="M960 1436 c0 -3 9 -10 20 -16 11 -6 20 -8 20 -6 0 3 -9 10 -20 16
-11 6 -20 8 -20 6z"/>
<path d="M2050 1434 c0 -6 -11 -17 -25 -24 -22 -12 -24 -15 -9 -23 9 -5 22
-10 29 -11 7 -1 21 -8 31 -16 17 -13 18 -13 7 1 -8 9 -9 19 -3 25 5 5 1 19
-10 34 -11 14 -20 20 -20 14z m30 -39 c0 -9 -40 -11 -51 -3 -11 8 -10 9 4 4 9
-3 17 -1 17 4 0 5 7 7 15 4 8 -4 15 -7 15 -9z"/>
<path d="M2427 1426 c-19 -14 -16 -18 18 -29 20 -7 20 -7 1 8 -17 13 -18 15
-3 15 9 0 17 5 17 10 0 14 -11 12 -33 -4z"/>
<path d="M2480 1432 c0 -15 11 -21 27 -15 12 5 12 7 1 14 -17 11 -28 11 -28 1z"/>
<path d="M2348 1423 c12 -2 30 -2 40 0 9 3 -1 5 -23 4 -22 0 -30 -2 -17 -4z"/>
<path d="M2781 1414 c0 -11 3 -14 6 -6 3 7 2 16 -1 19 -3 4 -6 -2 -5 -13z"/>
<path d="M2338 1403 c7 -3 16 -2 19 1 4 3 -2 6 -13 5 -11 0 -14 -3 -6 -6z"/>
<path d="M1540 1390 c0 -5 5 -10 10 -10 6 0 10 5 10 10 0 6 -4 10 -10 10 -5 0
-10 -4 -10 -10z"/>
<path d="M2348 1383 c6 -2 18 -2 25 0 6 3 1 5 -13 5 -14 0 -19 -2 -12 -5z"/>
<path d="M2761 1383 c-1 -6 -4 -20 -7 -30 -5 -15 -4 -15 5 -3 8 12 11 8 12
-20 2 -27 3 -29 6 -10 2 14 -1 37 -6 50 -5 14 -10 20 -10 13z"/>
<path d="M1535 1350 c-3 -5 -1 -10 4 -10 6 0 11 5 11 10 0 6 -2 10 -4 10 -3 0
-8 -4 -11 -10z"/>
<path d="M1750 1350 c-13 -9 -13 -11 0 -20 22 -14 43 -12 66 6 19 15 19 15 -1
11 -11 -3 -28 -8 -37 -12 -11 -4 -18 -3 -18 5 0 6 4 9 9 5 5 -3 12 -1 16 5 8
13 -15 13 -35 0z"/>
<path d="M1498 1333 c7 -3 16 -2 19 1 4 3 -2 6 -13 5 -11 0 -14 -3 -6 -6z"/>
<path d="M1715 1330 c3 -5 8 -10 11 -10 2 0 4 5 4 10 0 6 -5 10 -11 10 -5 0
-7 -4 -4 -10z"/>
<path d="M1840 1319 c11 -7 -7 -9 -62 -7 l-78 3 -5 -45 c-4 -25 -8 -57 -11
-71 -6 -32 12 -39 104 -39 77 0 116 18 131 61 15 44 14 52 -10 83 -16 20 -24
24 -34 16 -9 -8 -15 -8 -20 0 -3 5 -12 10 -18 10 -7 0 -6 -4 3 -11z"/>
<path d="M2746 1284 c-4 -9 -4 -19 -1 -22 3 -3 5 0 5 7 0 7 4 9 10 6 6 -3 7 1
4 9 -8 20 -10 20 -18 0z"/>
<path d="M2759 1208 c4 -28 6 -29 9 -9 2 13 0 27 -5 32 -6 6 -7 -3 -4 -23z"/>
<path d="M2752 1100 c0 -19 2 -27 5 -17 2 9 2 25 0 35 -3 9 -5 1 -5 -18z"/>
<path d="M2731 993 c0 -5 4 -17 9 -28 8 -18 9 -17 9 8 1 15 -3 27 -9 27 -5 0
-10 -3 -9 -7z"/>
<path d="M2732 880 c0 -14 2 -19 5 -12 2 6 2 18 0 25 -3 6 -5 1 -5 -13z"/>
<path d="M265 661 c-3 -6 -12 -8 -18 -4 -7 4 -6 -1 2 -11 13 -16 15 -16 24 -1
10 18 3 33 -8 16z"/>
<path d="M501 718 c-6 -16 -5 -30 5 -45 11 -18 11 -23 -1 -33 -8 -7 -15 -17
-15 -23 0 -5 9 2 20 16 17 21 18 30 10 53 -6 15 -9 33 -6 41 3 7 3 13 0 13 -2
0 -9 -10 -13 -22z"/>
<path d="M480 671 c0 -5 5 -13 10 -16 6 -3 10 -2 10 4 0 5 -4 13 -10 16 -5 3
-10 2 -10 -4z"/>
<path d="M535 559 c-11 -16 -1 -19 13 -3 7 8 8 14 3 14 -5 0 -13 -5 -16 -11z"/>
<path d="M2977 643 c-4 -3 -7 -11 -7 -17 0 -6 5 -4 11 4 8 12 9 10 5 -10 -3
-14 -1 -31 3 -38 13 -22 22 14 11 43 -10 27 -13 29 -23 18z"/>
<path d="M2951 628 c-1 -10 -5 -18 -11 -18 -5 0 -10 -5 -10 -12 0 -8 6 -7 16
4 9 9 14 22 11 30 -4 9 -6 7 -6 -4z"/>
<path d="M3205 710 c-3 -5 -1 -10 4 -10 6 0 11 5 11 10 0 6 -2 10 -4 10 -3 0
-8 -4 -11 -10z"/>
<path d="M3250 700 c0 -5 5 -10 11 -10 5 0 7 5 4 10 -3 6 -8 10 -11 10 -2 0
-4 -4 -4 -10z"/>
<path d="M220 460 c0 -5 5 -10 11 -10 5 0 7 5 4 10 -3 6 -8 10 -11 10 -2 0 -4
-4 -4 -10z"/>
<path d="M2596 361 c-3 -5 1 -14 9 -21 10 -9 15 -9 15 -1 0 6 -5 11 -11 11 -5
0 -7 5 -4 10 3 6 4 10 1 10 -3 0 -7 -4 -10 -9z"/>
</g>
</svg>
